<svg xmlns="http://www.w3.org/2000/svg" viewBox="0 0 1200 630" role="img" aria-labelledby="title desc">
  <title id="title">MathSolve</title>
  <desc id="desc">Upload a worksheet and get step-by-step math help.</desc>
  <rect width="1200" height="630" fill="#eff6ff"/>
  <path d="M0 0h1200v630H0z" fill="#f8fbff"/>
  <path d="M0 0h1200v630H0z" fill="url(#grid)"/>
  <rect x="82" y="74" width="1036" height="482" rx="36" fill="#ffffff" stroke="#bfdbfe" stroke-width="4"/>
  <rect x="132" y="124" width="126" height="126" rx="28" fill="#1d4ed8"/>
  <path d="M168 164h58v14h-58zM168 194h58v14h-58zM168 224h36v14h-36z" fill="#f8fafc"/>
  <path d="M220 222h16v-16h16v16h16v16h-16v16h-16v-16h-16z" fill="#facc15"/>
  <text x="298" y="174" fill="#0f172a" font-family="Inter, Arial, sans-serif" font-size="78" font-weight="800">MathSolve</text>
  <text x="302" y="238" fill="#2563eb" font-family="Inter, Arial, sans-serif" font-size="30" font-weight="700">Worksheet help in seconds</text>
  <text x="136" y="354" fill="#1e293b" font-family="Inter, Arial, sans-serif" font-size="44" font-weight="700">Upload a worksheet.</text>
  <text x="136" y="418" fill="#1e293b" font-family="Inter, Arial, sans-serif" font-size="44" font-weight="700">Get step-by-step math help.</text>
  <rect x="136" y="470" width="278" height="58" rx="18" fill="#dbeafe"/>
  <text x="166" y="508" fill="#1d4ed8" font-family="Inter, Arial, sans-serif" font-size="24" font-weight="800">Private practice tool</text>
  <defs>
    <pattern id="grid" width="56" height="56" patternUnits="userSpaceOnUse">
      <path d="M56 0H0v56" fill="none" stroke="#dbeafe" stroke-width="2"/>
    </pattern>
  </defs>
</svg>
